<svg xmlns="http://www.w3.org/2000/svg" xmlns:xlink="http://www.w3.org/1999/xlink" contentStyleType="text/css" data-diagram-type="DESCRIPTION" height="678.125px" preserveAspectRatio="none" style="width:908px;height:678px;" version="1.1" viewBox="0 0 908 678" width="908.3333px" zoomAndPan="magnify"><title>SoundLab - Component Architecture</title><defs><linearGradient id="gbunzwlgvdgcp0" x1="50%" x2="50%" y1="0%" y2="100%"><stop offset="0%" stop-color="#B8B8B8"/><stop offset="100%" stop-color="#999999"/></linearGradient><linearGradient id="gbunzwlgvdgcp1" x1="50%" x2="50%" y1="0%" y2="100%"><stop offset="0%" stop-color="#B8B8B8"/><stop offset="100%" stop-color="#6B6B6B"/></linearGradient><linearGradient id="gbunzwlgvdgcp2" x1="50%" x2="50%" y1="0%" y2="100%"><stop offset="0%" stop-color="#7C9AB9"/><stop offset="100%" stop-color="#304D6D"/></linearGradient></defs><g><g class="title" data-source-line="5"><rect fill="url(#gbunzwlgvdgcp0)" height="47.168" rx="4.1667" ry="4.1667" style="stroke:#6B6B6B;stroke-width:1.0417;" width="450.1017" x="224.4283" y="20.8333"/><text fill="#304D6D" font-family="'Verdana'" font-size="20.8333" font-weight="bold" lengthAdjust="spacing" textLength="427.1851" x="235.8866" y="51.6296">SoundLab - Component Architecture</text></g><!--cluster External World--><g class="cluster" data-entity="External World" data-source-line="7" data-uid="ent0002" id="cluster_External World"><rect fill="url(#gbunzwlgvdgcp1)" height="116.6667" rx="4.1667" ry="4.1667" style="stroke:#446E9B;stroke-width:2.0833;" width="202.0833" x="593.75" y="86.7513"/><text fill="#FFFFFF" font-family="'Verdana'" font-size="12.5" font-weight="bold" lengthAdjust="spacing" textLength="104.9622" x="642.3106" y="105.6458">External World</text></g><!--cluster Unity: Tangible System--><g class="cluster" data-entity="Unity. Tangible System" data-source-line="11" data-uid="ent0004" id="cluster_Unity. Tangible System"><rect fill="url(#gbunzwlgvdgcp1)" height="116.6667" rx="4.1667" ry="4.1667" style="stroke:#446E9B;stroke-width:2.0833;" width="257.2917" x="616.6667" y="237.793"/><text fill="#FFFFFF" font-family="'Verdana'" font-size="12.5" font-weight="bold" lengthAdjust="spacing" textLength="164.032" x="663.2965" y="256.6874">Unity: Tangible System</text></g><!--cluster Unity: VR System--><g class="cluster" data-entity="Unity. VR System" data-source-line="17" data-uid="ent0007" id="cluster_Unity. VR System"><rect fill="url(#gbunzwlgvdgcp1)" height="267.7083" rx="4.1667" ry="4.1667" style="stroke:#446E9B;stroke-width:2.0833;" width="225" x="343.75" y="86.7513"/><text fill="#FFFFFF" font-family="'Verdana'" font-size="12.5" font-weight="bold" lengthAdjust="spacing" textLength="122.5281" x="394.986" y="105.6458">Unity: VR System</text></g><!--cluster Unity: UI System--><g class="cluster" data-entity="Unity. UI System" data-source-line="24" data-uid="ent0010" id="cluster_Unity. UI System"><rect fill="url(#gbunzwlgvdgcp1)" height="267.7083" rx="4.1667" ry="4.1667" style="stroke:#446E9B;stroke-width:2.0833;" width="256.25" x="17.7083" y="237.793"/><text fill="#FFFFFF" font-family="'Verdana'" font-size="12.5" font-weight="bold" lengthAdjust="spacing" textLength="118.0298" x="86.8184" y="256.6874">Unity: UI System</text></g><!--cluster Unity: Game Core--><g class="cluster" data-entity="Unity. Game Core" data-source-line="30" data-uid="ent0013" id="cluster_Unity. Game Core"><rect fill="url(#gbunzwlgvdgcp1)" height="278.125" rx="4.1667" ry="4.1667" style="stroke:#446E9B;stroke-width:2.0833;" width="597.9167" x="298.9583" y="388.8346"/><text fill="#FFFFFF" font-family="'Verdana'" font-size="12.5" font-weight="bold" lengthAdjust="spacing" textLength="123.761" x="536.0362" y="407.7291">Unity: Game Core</text></g><!--entity Hardware--><g class="entity" data-entity="Hardware" data-source-line="8" data-uid="ent0003" id="entity_Hardware"><polygon fill="#999999" points="610.9375,140.918,621.3542,130.5013,778.6886,130.5013,778.6886,176.3021,768.2719,186.7188,610.9375,186.7188,610.9375,140.918" style="stroke:#EEEEEE;stroke-width:1.0417;"/><line style="stroke:#EEEEEE;stroke-width:1.0417;" x1="768.2719" x2="778.6886" y1="140.918" y2="130.5013"/><line style="stroke:#EEEEEE;stroke-width:1.0417;" x1="610.9375" x2="768.2719" y1="140.918" y2="140.918"/><line style="stroke:#EEEEEE;stroke-width:1.0417;" x1="768.2719" x2="768.2719" y1="140.918" y2="186.7188"/><text fill="#EEEEEE" font-family="'Verdana'" font-size="12.5" lengthAdjust="spacing" textLength="115.6677" x="631.7708" y="168.1458">Physical Hardware</text></g><!--entity WS--><g class="entity" data-entity="WS" data-source-line="12" data-uid="ent0005" id="entity_WS"><ellipse cx="642.7083" cy="309.668" fill="#900100" rx="8.3333" ry="8.3333" style="stroke:#CD0200;stroke-width:1.0417;"/><text fill="#333333" font-family="'Verdana'" font-size="12.5" lengthAdjust="spacing" textLength="144.9707" x="570.223" y="344.1874">WebSocket Connection</text></g><!--entity TangibleCtrl--><g class="entity" data-entity="TangibleCtrl" data-source-line="13" data-uid="ent0006" id="entity_TangibleCtrl"><rect fill="url(#gbunzwlgvdgcp2)" height="56.2174" rx="4.1667" ry="4.1667" style="stroke:#304D6D;stroke-width:1.0417;" width="167.568" x="689.0625" y="281.543"/><rect fill="url(#gbunzwlgvdgcp2)" height="10.4167" style="stroke:#304D6D;stroke-width:1.0417;" width="15.625" x="835.7971" y="286.7513"/><rect fill="url(#gbunzwlgvdgcp2)" height="2.0833" style="stroke:#304D6D;stroke-width:1.0417;" width="4.1667" x="833.7138" y="288.8346"/><rect fill="url(#gbunzwlgvdgcp2)" height="2.0833" style="stroke:#304D6D;stroke-width:1.0417;" width="4.1667" x="833.7138" y="293.0013"/><text fill="#FFFFFF" font-family="'Verdana'" font-size="12.5" lengthAdjust="spacing" textLength="115.4846" x="709.8958" y="319.1874">TangibleController</text></g><!--entity XRRig--><g class="entity" data-entity="XRRig" data-source-line="18" data-uid="ent0008" id="entity_XRRig"><rect fill="url(#gbunzwlgvdgcp2)" height="56.2174" rx="4.1667" ry="4.1667" style="stroke:#304D6D;stroke-width:1.0417;" width="191.3167" x="360.4167" y="130.5013"/><rect fill="url(#gbunzwlgvdgcp2)" height="10.4167" style="stroke:#304D6D;stroke-width:1.0417;" width="15.625" x="530.9001" y="135.7096"/><rect fill="url(#gbunzwlgvdgcp2)" height="2.0833" style="stroke:#304D6D;stroke-width:1.0417;" width="4.1667" x="528.8167" y="137.793"/><rect fill="url(#gbunzwlgvdgcp2)" height="2.0833" style="stroke:#304D6D;stroke-width:1.0417;" width="4.1667" x="528.8167" y="141.9596"/><text fill="#FFFFFF" font-family="'Verdana'" font-size="12.5" lengthAdjust="spacing" textLength="139.2334" x="381.25" y="168.1458">XR Origin / Interactors</text></g><!--entity VRCtrl--><g class="entity" data-entity="VRCtrl" data-source-line="19" data-uid="ent0009" id="entity_VRCtrl"><rect fill="url(#gbunzwlgvdgcp2)" height="56.2174" rx="4.1667" ry="4.1667" style="stroke:#304D6D;stroke-width:1.0417;" width="131.0811" x="412.5" y="281.543"/><rect fill="url(#gbunzwlgvdgcp2)" height="10.4167" style="stroke:#304D6D;stroke-width:1.0417;" width="15.625" x="522.7478" y="286.7513"/><rect fill="url(#gbunzwlgvdgcp2)" height="2.0833" style="stroke:#304D6D;stroke-width:1.0417;" width="4.1667" x="520.6645" y="288.8346"/><rect fill="url(#gbunzwlgvdgcp2)" height="2.0833" style="stroke:#304D6D;stroke-width:1.0417;" width="4.1667" x="520.6645" y="293.0013"/><text fill="#FFFFFF" font-family="'Verdana'" font-size="12.5" lengthAdjust="spacing" textLength="78.9978" x="433.3333" y="319.1874">VRController</text></g><!--entity TitleUI--><g class="entity" data-entity="TitleUI" data-source-line="25" data-uid="ent0011" id="entity_TitleUI"><rect fill="url(#gbunzwlgvdgcp2)" height="56.2174" rx="4.1667" ry="4.1667" style="stroke:#304D6D;stroke-width:1.0417;" width="223.0733" x="34.375" y="281.543"/><rect fill="url(#gbunzwlgvdgcp2)" height="10.4167" style="stroke:#304D6D;stroke-width:1.0417;" width="15.625" x="236.615" y="286.7513"/><rect fill="url(#gbunzwlgvdgcp2)" height="2.0833" style="stroke:#304D6D;stroke-width:1.0417;" width="4.1667" x="234.5317" y="288.8346"/><rect fill="url(#gbunzwlgvdgcp2)" height="2.0833" style="stroke:#304D6D;stroke-width:1.0417;" width="4.1667" x="234.5317" y="293.0013"/><text fill="#FFFFFF" font-family="'Verdana'" font-size="12.5" lengthAdjust="spacing" textLength="170.99" x="55.2083" y="319.1874">TitleCanvas (CanvasGroup)</text></g><!--entity UICtrl--><g class="entity" data-entity="UICtrl" data-source-line="26" data-uid="ent0012" id="entity_UICtrl"><rect fill="url(#gbunzwlgvdgcp2)" height="56.2174" rx="4.1667" ry="4.1667" style="stroke:#304D6D;stroke-width:1.0417;" width="126.6805" x="82.2917" y="432.5846"/><rect fill="url(#gbunzwlgvdgcp2)" height="10.4167" style="stroke:#304D6D;stroke-width:1.0417;" width="15.625" x="188.1388" y="437.793"/><rect fill="url(#gbunzwlgvdgcp2)" height="2.0833" style="stroke:#304D6D;stroke-width:1.0417;" width="4.1667" x="186.0555" y="439.8763"/><rect fill="url(#gbunzwlgvdgcp2)" height="2.0833" style="stroke:#304D6D;stroke-width:1.0417;" width="4.1667" x="186.0555" y="444.043"/><text fill="#FFFFFF" font-family="'Verdana'" font-size="12.5" lengthAdjust="spacing" textLength="74.5972" x="103.125" y="470.2291">UIController</text></g><!--entity GameCtrl--><g class="entity" data-entity="GameCtrl" data-source-line="31" data-uid="ent0014" id="entity_GameCtrl"><rect fill="url(#gbunzwlgvdgcp2)" height="56.2174" rx="4.1667" ry="4.1667" style="stroke:#304D6D;stroke-width:1.0417;" width="151.0579" x="490.1042" y="432.5846"/><rect fill="url(#gbunzwlgvdgcp2)" height="10.4167" style="stroke:#304D6D;stroke-width:1.0417;" width="15.625" x="620.3288" y="437.793"/><rect fill="url(#gbunzwlgvdgcp2)" height="2.0833" style="stroke:#304D6D;stroke-width:1.0417;" width="4.1667" x="618.2454" y="439.8763"/><rect fill="url(#gbunzwlgvdgcp2)" height="2.0833" style="stroke:#304D6D;stroke-width:1.0417;" width="4.1667" x="618.2454" y="444.043"/><text fill="#FFFFFF" font-family="'Verdana'" font-size="12.5" lengthAdjust="spacing" textLength="98.9746" x="510.9375" y="470.2291">GameController</text></g><!--entity LoopMgr--><g class="entity" data-entity="LoopMgr" data-source-line="32" data-uid="ent0015" id="entity_LoopMgr"><rect fill="url(#gbunzwlgvdgcp2)" height="56.2174" rx="4.1667" ry="4.1667" style="stroke:#304D6D;stroke-width:1.0417;" width="137.0687" x="562.5" y="586.7513"/><rect fill="url(#gbunzwlgvdgcp2)" height="10.4167" style="stroke:#304D6D;stroke-width:1.0417;" width="15.625" x="678.7354" y="591.9596"/><rect fill="url(#gbunzwlgvdgcp2)" height="2.0833" style="stroke:#304D6D;stroke-width:1.0417;" width="4.1667" x="676.652" y="594.043"/><rect fill="url(#gbunzwlgvdgcp2)" height="2.0833" style="stroke:#304D6D;stroke-width:1.0417;" width="4.1667" x="676.652" y="598.2096"/><text fill="#FFFFFF" font-family="'Verdana'" font-size="12.5" lengthAdjust="spacing" textLength="84.9854" x="583.3333" y="624.3958">LoopManager</text></g><!--entity AudioMgr--><g class="entity" data-entity="AudioMgr" data-source-line="33" data-uid="ent0016" id="entity_AudioMgr"><rect fill="url(#gbunzwlgvdgcp2)" height="56.2174" rx="4.1667" ry="4.1667" style="stroke:#304D6D;stroke-width:1.0417;" width="142.4032" x="736.9792" y="586.7513"/><rect fill="url(#gbunzwlgvdgcp2)" height="10.4167" style="stroke:#304D6D;stroke-width:1.0417;" width="15.625" x="858.549" y="591.9596"/><rect fill="url(#gbunzwlgvdgcp2)" height="2.0833" style="stroke:#304D6D;stroke-width:1.0417;" width="4.1667" x="856.4657" y="594.043"/><rect fill="url(#gbunzwlgvdgcp2)" height="2.0833" style="stroke:#304D6D;stroke-width:1.0417;" width="4.1667" x="856.4657" y="598.2096"/><text fill="#FFFFFF" font-family="'Verdana'" font-size="12.5" lengthAdjust="spacing" textLength="90.3198" x="757.8125" y="624.3958">AudioManager</text></g><!--entity Environment--><g class="entity" data-entity="Environment" data-source-line="34" data-uid="ent0017" id="entity_Environment"><rect fill="url(#gbunzwlgvdgcp2)" height="70.7682" rx="4.1667" ry="4.1667" style="stroke:#304D6D;stroke-width:1.0417;" width="209.2672" x="316.1458" y="579.4596"/><rect fill="url(#gbunzwlgvdgcp2)" height="10.4167" style="stroke:#304D6D;stroke-width:1.0417;" width="15.625" x="504.5797" y="584.668"/><rect fill="url(#gbunzwlgvdgcp2)" height="2.0833" style="stroke:#304D6D;stroke-width:1.0417;" width="4.1667" x="502.4963" y="586.7513"/><rect fill="url(#gbunzwlgvdgcp2)" height="2.0833" style="stroke:#304D6D;stroke-width:1.0417;" width="4.1667" x="502.4963" y="590.918"/><text fill="#FFFFFF" font-family="'Verdana'" font-size="12.5" lengthAdjust="spacing" textLength="116.5527" x="336.9792" y="617.1041">VisualSceneParent</text><text fill="#FFFFFF" font-family="'Verdana'" font-size="12.5" lengthAdjust="spacing" textLength="157.1838" x="336.9792" y="631.6549">(SunSystem, Lights, etc.)</text></g><!--link Hardware to WS--><g class="link" data-entity-1="Hardware" data-entity-2="WS" data-source-line="40" data-uid="lnk18" id="link_Hardware_WS"><path d="M683.1766,192.8906 C671.135,227.3281 655.2288,272.8096 647.7288,294.268" fill="none" id="Hardware-WS" style="stroke:#446E9B;stroke-width:3.125;stroke-dasharray:7.2917,7.2917;"/><polygon fill="#446E9B" points="685.2396,186.9909,678.212,194.4652,683.5205,191.9073,686.0783,197.2158,685.2396,186.9909" style="stroke:#446E9B;stroke-width:3.125;"/><polygon fill="#446E9B" points="645.6667,300.168,652.6932,292.6927,647.3851,295.2513,644.8265,289.9432,645.6667,300.168" style="stroke:#446E9B;stroke-width:3.125;"/></g><!--link WS to TangibleCtrl--><g class="link" data-entity-1="WS" data-entity-2="TangibleCtrl" data-source-line="41" data-uid="lnk19" id="link_WS_TangibleCtrl"><path d="M652.375,309.668 C664.4583,309.668 676.5417,309.668 688.625,309.668" fill="none" id="WS-TangibleCtrl" style="stroke:#446E9B;stroke-width:3.125;"/></g><!--link TangibleCtrl to GameCtrl--><g class="link" data-entity-1="TangibleCtrl" data-entity-2="GameCtrl" data-source-line="42" data-uid="lnk20" id="link_TangibleCtrl_GameCtrl"><path d="M734.8958,338.0326 C697.4896,364.9076 645.7936,402.0511 608.4811,428.874" fill="none" id="TangibleCtrl-to-GameCtrl" style="stroke:#446E9B;stroke-width:3.125;"/><polygon fill="#446E9B" points="603.4063,432.5221,613.4505,430.4331,607.6353,429.482,608.5864,423.6667,603.4063,432.5221" style="stroke:#446E9B;stroke-width:3.125;"/></g><!--link XRRig to VRCtrl--><g class="link" data-entity-1="XRRig" data-entity-2="VRCtrl" data-source-line="45" data-uid="lnk21" id="link_XRRig_VRCtrl"><path d="M460.2604,186.9909 C464.2083,213.8659 469.2902,248.4738 473.2277,275.2967" fill="none" id="XRRig-to-VRCtrl" style="stroke:#446E9B;stroke-width:3.125;"/><polygon fill="#446E9B" points="474.1354,281.4805,476.8963,271.5997,473.379,276.3274,468.6513,272.81,474.1354,281.4805" style="stroke:#446E9B;stroke-width:3.125;"/></g><!--link VRCtrl to GameCtrl--><g class="link" data-entity-1="VRCtrl" data-entity-2="GameCtrl" data-source-line="46" data-uid="lnk22" id="link_VRCtrl_GameCtrl"><path d="M494.1771,338.0326 C509.9583,364.9076 530.7624,400.3097 546.5124,427.1326" fill="none" id="VRCtrl-to-GameCtrl" style="stroke:#446E9B;stroke-width:3.125;"/><polygon fill="#446E9B" points="549.6771,432.5221,548.5231,422.328,547.0399,428.0308,541.337,426.5476,549.6771,432.5221" style="stroke:#446E9B;stroke-width:3.125;"/></g><!--link TitleUI to UICtrl--><g class="link" data-entity-1="TitleUI" data-entity-2="UICtrl" data-source-line="49" data-uid="lnk23" id="link_TitleUI_UICtrl"><path d="M135.2813,338.0326 C131.6354,364.9076 130.8017,399.5065 134.4579,426.3294" fill="none" id="TitleUI-to-UICtrl" style="stroke:#446E9B;stroke-width:3.125;"/><polygon fill="#446E9B" points="135.3021,432.5221,138.1644,422.6703,134.5986,427.3615,129.9074,423.7958,135.3021,432.5221" style="stroke:#446E9B;stroke-width:3.125;"/></g><!--link UICtrl to TitleUI--><g class="link" data-entity-1="UICtrl" data-entity-2="TitleUI" data-source-line="50" data-uid="lnk24" id="link_UICtrl_TitleUI"><path d="M156.9792,432.5221 C160.8542,405.6992 161.7518,371.0943 157.8977,344.2193" fill="none" id="UICtrl-to-TitleUI" style="stroke:#446E9B;stroke-width:3.125;"/><polygon fill="#446E9B" points="157.0104,338.0326,154.2168,347.9041,157.7498,343.1881,162.4657,346.7211,157.0104,338.0326" style="stroke:#446E9B;stroke-width:3.125;"/></g><!--link UICtrl to Environment--><g class="link" data-entity-1="UICtrl" data-entity-2="Environment" data-source-line="51" data-uid="lnk25" id="link_UICtrl_Environment"><path d="M176.3542,489.2096 C197.875,507.5846 227.9792,531.3971 257.2917,548.2096 C277.4583,559.7721 294.2973,567.8732 316.1098,576.894" fill="none" id="UICtrl-to-Environment" style="stroke:#446E9B;stroke-width:3.125;"/><polygon fill="#446E9B" points="321.8854,579.2826,314.8144,571.8493,317.0724,577.2921,311.6297,579.5501,321.8854,579.2826" style="stroke:#446E9B;stroke-width:3.125;"/><text fill="#FFFFFF" font-family="'Verdana'" font-size="12.5" lengthAdjust="spacing" textLength="94.8181" x="263.5417" y="540.0208">SetActive(true)</text></g><!--link GameCtrl to LoopMgr--><g class="link" data-entity-1="GameCtrl" data-entity-2="LoopMgr" data-source-line="54" data-uid="lnk26" id="link_GameCtrl_LoopMgr"><path d="M558.8438,488.9388 C555.8333,506.543 554.5208,529.5638 562.5,548.2096 C568.8646,563.0742 575.7506,572.032 587.6047,582.5424" fill="none" id="GameCtrl-to-LoopMgr" style="stroke:#446E9B;stroke-width:3.125;"/><polygon fill="#446E9B" points="592.2813,586.6888,588.0307,577.3515,588.3842,583.2335,582.5022,583.5869,592.2813,586.6888" style="stroke:#446E9B;stroke-width:3.125;"/><text fill="#FFFFFF" font-family="'Verdana'" font-size="12.5" lengthAdjust="spacing" textLength="168.4204" x="568.75" y="540.0208">Controls visual/audio loops</text></g><!--link GameCtrl to AudioMgr--><g class="link" data-entity-1="GameCtrl" data-entity-2="AudioMgr" data-source-line="55" data-uid="lnk27" id="link_GameCtrl_AudioMgr"><path d="M641.5,475.2721 C676.1875,484.2617 716.2708,498.8555 746.875,522.168 C768.9792,539.0013 782.9222,560.61 793.318,581.0058" fill="none" id="GameCtrl-to-AudioMgr" style="stroke:#446E9B;stroke-width:3.125;"/><polygon fill="#446E9B" points="796.1563,586.5742,795.6112,576.3295,793.7911,581.9339,788.1866,580.1138,796.1563,586.5742" style="stroke:#446E9B;stroke-width:3.125;"/><text fill="#FFFFFF" font-family="'Verdana'" font-size="12.5" lengthAdjust="spacing" textLength="81.0059" x="778.125" y="540.0208">Plays sounds</text></g><!--link GameCtrl to Environment--><g class="link" data-entity-1="GameCtrl" data-entity-2="Environment" data-source-line="56" data-uid="lnk28" id="link_GameCtrl_Environment"><path d="M489.7813,465.6471 C449.6771,472.0326 403.5938,487.1992 378.125,522.168 C365.4063,539.6263 371.0781,556.4276 384.2448,574.4068" fill="none" id="GameCtrl-to-Environment" style="stroke:#446E9B;stroke-width:3.125;"/><polygon fill="#446E9B" points="387.9375,579.4492,385.76,569.4237,384.8602,575.2472,379.0368,574.3474,387.9375,579.4492" style="stroke:#446E9B;stroke-width:3.125;"/><text fill="#FFFFFF" font-family="'Verdana'" font-size="12.5" lengthAdjust="spacing" textLength="158.5083" x="384.375" y="540.0208">Modifies visuals (Morphs)</text></g><!--SRC=[VLDHQzim47xNhxZbPGaqAUonZ488NHT8MB2Rff3jGR5LMqG-6KbE5yR- -qwIxIQcB124xllkkpjzPtkKM7F3AyXqLMiKw59tLWAQIdrXjaSFF3iMHZUOBxJI1fpXQ0aY_WMh9XOlH5Gm8dCS2oKOSz9H8FNfAtw0AIowOZ0tMIaTKHiZs2TNYae02MT2yGDhzM3qyDi9Wrp1JXkLZ-0F0_gXpWdRb6ShCyA-SvE_KKiZuBQ_iB_iNMQBqftlu8dQaWVVqTawKNLo4gd8AvM6qKuSKfqTXQDE4QaxgJ78xj90tNSI13kZbHBcbuVxi3Cg43yg_vmC2kzV4lXXP24HRc7fk-2PqyO6oPSaaKMaFIU3SXJe2trKQRiSLdhoJYmudYXx7Cz7ihMUnFOzkbr6wdOvg4Q1_utroCcwXVRltnRpaO5627Kg-vNMzPeZgKGqt0iJmNcJIts9na07FqlRS9Lc0iKcxE5F7ASDndblO2MBqjaR42wRnU4Uy2IDniglBBN_6QRJAIIqPzvSMyhQ-eW7-ltuflGRwpO9livczxG0mEW_lRRwya8gz_sSuFN8yA0Kh0nmQrmyhX8ydsmB_DQEWCV71zQUFjJ1bx6B8U4EKk7cjBidCNQc4HElxGs2H3TEOi7wBdrg-_YKrdfcuHJU-9RxXmT5kBrEwHoXd8tYPmlMV-83qdLBQvtBLoawRTh2jJPrQIV_0000]--></g></svg>